<svg id="visual" viewBox="0 0 900 600" width="900" height="600" xmlns="http://www.w3.org/2000/svg" xmlns:xlink="http://www.w3.org/1999/xlink" version="1.1"><path d="M0 363L129 422L257 384L386 413L514 410L643 411L771 398L900 417L900 601L771 601L643 601L514 601L386 601L257 601L129 601L0 601Z" fill="#888277"></path><path d="M0 476L129 435L257 444L386 402L514 449L643 399L771 393L900 446L900 601L771 601L643 601L514 601L386 601L257 601L129 601L0 601Z" fill="#967a5d"></path><path d="M0 452L129 444L257 464L386 466L514 501L643 506L771 449L900 446L900 601L771 601L643 601L514 601L386 601L257 601L129 601L0 601Z" fill="#aa6c4b"></path><path d="M0 507L129 506L257 494L386 520L514 512L643 528L771 488L900 503L900 601L771 601L643 601L514 601L386 601L257 601L129 601L0 601Z" fill="#c05847"></path><path d="M0 565L129 532L257 567L386 540L514 548L643 526L771 539L900 548L900 601L771 601L643 601L514 601L386 601L257 601L129 601L0 601Z" fill="#d33954"></path></svg>