<?xml version="1.0" standalone="no"?>
<svg xmlns:xlink="http://www.w3.org/1999/xlink" id="wave" style="transform:rotate(0deg); transition: 0.3s" viewBox="0 0 1440 100" version="1.1" xmlns="http://www.w3.org/2000/svg"><defs><linearGradient id="sw-gradient-0" x1="0" x2="0" y1="1" y2="0"><stop stop-color="rgba(255, 255, 255, 1)" offset="0%"/><stop stop-color="rgba(255, 255, 255, 1)" offset="100%"/></linearGradient></defs><path style="transform:translate(0, 0px); opacity:1" fill="url(#sw-gradient-0)" d="M0,80L20,66.7C40,53,80,27,120,23.3C160,20,200,40,240,50C280,60,320,60,360,53.3C400,47,440,33,480,28.3C520,23,560,27,600,36.7C640,47,680,63,720,70C760,77,800,73,840,61.7C880,50,920,30,960,30C1000,30,1040,50,1080,51.7C1120,53,1160,37,1200,35C1240,33,1280,47,1320,50C1360,53,1400,47,1440,41.7C1480,37,1520,33,1560,36.7C1600,40,1640,50,1680,58.3C1720,67,1760,73,1800,73.3C1840,73,1880,67,1920,56.7C1960,47,2000,33,2040,36.7C2080,40,2120,60,2160,60C2200,60,2240,40,2280,35C2320,30,2360,40,2400,45C2440,50,2480,50,2520,50C2560,50,2600,50,2640,50C2680,50,2720,50,2760,51.7C2800,53,2840,57,2860,58.3L2880,60L2880,100L2860,100C2840,100,2800,100,2760,100C2720,100,2680,100,2640,100C2600,100,2560,100,2520,100C2480,100,2440,100,2400,100C2360,100,2320,100,2280,100C2240,100,2200,100,2160,100C2120,100,2080,100,2040,100C2000,100,1960,100,1920,100C1880,100,1840,100,1800,100C1760,100,1720,100,1680,100C1640,100,1600,100,1560,100C1520,100,1480,100,1440,100C1400,100,1360,100,1320,100C1280,100,1240,100,1200,100C1160,100,1120,100,1080,100C1040,100,1000,100,960,100C920,100,880,100,840,100C800,100,760,100,720,100C680,100,640,100,600,100C560,100,520,100,480,100C440,100,400,100,360,100C320,100,280,100,240,100C200,100,160,100,120,100C80,100,40,100,20,100L0,100Z"/></svg>